<?xml version="1.0" encoding="utf-8"?>
<!-- Generator: Adobe Illustrator 19.2.1, SVG Export Plug-In . SVG Version: 6.00 Build 0)  -->
<svg version="1.1" id="layer" xmlns="http://www.w3.org/2000/svg" xmlns:xlink="http://www.w3.org/1999/xlink" x="0px" y="0px"
	 viewBox="0 0 652 652" style="enable-background:new 0 0 652 652;" xml:space="preserve">
<style type="text/css">
	.st0{fill:#563D7C;}
</style>
<path class="st0" d="M43.5,246.9c-3.2,0.4-5.7,1.2-8.6,2.6c-4.7,2.4-8.3,6-10.7,10.7c-1.2,2.4-1.8,3.9-2.3,6.4
	c-0.4,1.7-0.4,4.3-0.4,54s0,52.3,0.4,54c0.5,2.5,1.1,4,2.3,6.4c2.4,4.7,6,8.3,10.7,10.7c2.4,1.2,3.9,1.8,6.4,2.3
	c1.7,0.4,4.3,0.4,54,0.4s52.3,0,54-0.4c2.5-0.5,4-1.1,6.4-2.3c4.7-2.4,8.3-6,10.7-10.7c1.2-2.4,1.8-3.9,2.3-6.4
	c0.4-1.7,0.4-4.3,0.4-54s0-52.3-0.4-54c-0.5-2.5-1.1-4-2.3-6.4c-3.4-6.6-9.3-11.1-16.8-13c-1.5-0.4-4.2-0.4-53.5-0.4
	C67.5,246.8,43.9,246.9,43.5,246.9z M110,279.3c10,1.9,15.9,6.4,18.1,13.9c1.1,3.8,1.2,9.1,0.2,12.7c-0.4,1.6-1.7,4.3-2.6,5.6
	c-1.7,2.4-4.6,4.8-7.6,6.3c-0.7,0.4-1.3,0.7-1.3,0.8c0,0.1,0.5,0.3,1.1,0.4c0.6,0.1,1.8,0.5,2.7,0.9c7.8,3.1,12.3,10.6,12.3,20.9
	c0,6-1.9,11.4-5.4,15.1c-4,4.3-9.5,6.9-17.6,8.4c-1.8,0.3-4.4,0.4-25.1,0.4l-23.2,0.1v-86.1l23.4,0.1C105.1,279,108.5,279,110,279.3
	L110,279.3z M76.7,303v11.9l13.8-0.1c12.1-0.1,13.9-0.1,14.9-0.4c3.3-1,6.1-3.1,7.3-5.7c0.9-1.9,1.2-3.2,1.2-6
	c0-5.3-1.6-8.4-5.1-10.1c-3-1.4-3-1.4-18.2-1.5L76.7,291V303L76.7,303z M76.7,339.2v13.5l15-0.1c14.7-0.1,15.1-0.1,16.7-0.5
	c2.4-0.7,4.1-1.6,5.7-3.3c2.6-2.5,3.5-5.3,3.5-9.7c0-4.4-1.1-7.2-3.6-9.7c-1.7-1.6-3.3-2.4-5.9-3.1c-1.7-0.4-2.2-0.5-16.6-0.5
	l-14.8-0.1V339.2z"/>
<path id="Shape" class="st0" d="M218.8,279.1c0.3-0.1,0.6-0.2,0.9-0.2c11.2,0,22.3,0,33.5,0.2c3.8,0.1,7.3,1.4,10.4,3.7
	c7.1,5.2,7.8,19.9-2,25.2c-0.5,0.3-1,0.5-1.7,0.9c1.9,0.9,3.7,1.5,5.2,2.5c5.9,4,8.3,12.9,5.6,20.7c-2.3,6.8-7.8,9.7-14.1,11.2
	c-2.1,0.5-4.3,0.7-6.4,0.8c-10.4,0.1-20.9,0-31.4,0C218.8,322.5,218.8,300.8,218.8,279.1z M229.9,334.6c7.8,0,15.3,0.2,22.8-0.1
	c4.7-0.2,8.1-5.3,7.9-10.3c-0.3-5-3.3-9.2-7.9-9.4c-7.5-0.4-14.9-0.3-22.4-0.3c-0.1,0-0.2,0.2-0.4,0.3L229.9,334.6z M230,306
	c6.9,0,13.6,0.3,20.3-0.1c4.9-0.3,7.7-4.2,7.5-9.7c-0.2-4.8-3-7.7-8-7.9c-6.3-0.2-12.6-0.1-19-0.1c-0.3,0-0.5,0.1-0.8,0.2V306
	L230,306z M575.6,297.1h9.3v5.1c1-0.8,2.3-1.7,3.5-2.7c7.1-6.2,24-5.5,29.8,7.1c5,10.8,4.8,21.7-2,31.7c-3.7,5.6-9.5,7.6-16,7.2
	c-5.7-0.3-10.7-2.1-14.6-7.5v23.7h-10C575.6,340.1,575.6,318.6,575.6,297.1z M585,320.9c0.4,2.4,0.6,4.8,1.3,7.1
	c1.4,5.1,5.8,8.9,10.4,9.3c6.1,0.4,10.5-1.9,12.7-7.4c2.8-7,2.7-14.1-1.4-20.6c-4.8-7.7-16.4-7.1-20.5,1
	C585.8,313.6,585,317.1,585,320.9L585,320.9z M569,337.4c0,1.9,0.1,3.9,0,5.9c0,0.5-0.6,1.3-1,1.3c-2.9,0.2-5.8,0.7-8.7,0.4
	c-2.5-0.3-3.9-2.5-4.7-5c-6,5-12.9,6-20.2,5.1c-6.1-0.8-11.2-5.9-11.6-11.6c-0.6-7.8,2.3-12.9,9.2-14.8c4.8-1.3,9.9-1.8,14.8-2.7
	c1.2-0.2,2.4-0.4,3.6-0.7c2.3-0.6,3.9-1.9,4-4.5c0.2-2.7-0.9-4.8-3.3-5.8c-4.2-1.7-8.6-1.7-12.8,0.3c-1.9,0.9-3,2.7-4,5.9h-9.8
	c0-3.8,1.3-7,3.8-9.7c3.3-3.6,7.6-5,12.2-5.4c4.8-0.5,9.6-0.5,14.3,1.1c6.3,2.2,9.3,6.4,9.3,13.2c0,7.2,0,14.4,0,21.6
	C564,337,564,337,569,337.4L569,337.4z M553.8,321.2c-3.1,0.5-5.9,1-8.7,1.6c-2.9,0.6-5.9,1.2-8.7,2.2c-2.7,1-3.7,3.6-3.6,6.4
	c0.1,2.7,1.9,4.2,4.2,5c4,1.4,8,1.2,11.7-0.6c2.7-1.3,4.8-3.4,5-6.6C554,326.5,553.8,323.8,553.8,321.2L553.8,321.2z M301.7,295.7
	c15.4-0.2,24.4,11.3,23.4,26.9c-0.3,5.4-1.8,10.5-5.3,14.8c-3.8,4.6-8.6,7.1-14.5,7.7c-4.9,0.6-9.6,0.2-14.1-1.9
	c-6.7-3.1-10.6-8.5-12.2-15.8c-1.1-5-1.1-9.9,0.2-14.8C282,301.9,290.2,295.8,301.7,295.7z M288.3,320.7c0.4,2.3,0.6,4.6,1.2,6.9
	c1.6,5.7,6,9.4,11,9.7c6.2,0.3,10.5-2.4,12.9-8.2c2.3-5.8,2.3-11.6-0.2-17.3c-3.7-8.4-13.6-10.6-20-4.3
	C289.5,310.9,288.6,315.6,288.3,320.7z M355,295.7c13.9,0,23.3,9.5,23.5,23.7c0.1,6-0.9,11.7-4.3,16.7c-4.9,7.2-12,9.7-20.2,9.3
	c-3-0.1-6.2-0.8-9-2c-6.6-2.6-10.6-7.9-12.3-14.8c-1.5-6.1-1.4-12.2,0.6-18.2C336.2,301.2,344.5,295.7,355,295.7z M368.3,319.4
	c-0.2-1.3-0.4-3.7-1.1-6c-1.7-5.8-6.2-9.4-11.8-9.6c-5.3-0.2-10.1,2.9-12.1,8.5c-2.4,6.6-2.2,13.1,1.4,19.2c3.8,6.4,12.4,7.8,18.1,3
	C367.1,330.9,368.1,325.9,368.3,319.4L368.3,319.4z M454,310.2c-3.2,0-6.2,0-9.3,0c-0.4,0-1-0.4-1.1-0.7c-1.7-4.9-5.8-5.5-10-5.5
	c-1.7,0-3.6,0.4-5.2,1.1c-3.5,1.5-3.8,5.5-0.6,7.4c2.2,1.3,4.9,2,7.4,2.8c3.6,1,7.3,1.7,10.9,2.7c9.1,2.8,12.7,12.1,7.6,19.8
	c-2.4,3.7-6.1,5.7-10.3,6.7c-6.2,1.5-12.4,1.6-18.4-0.6c-6.5-2.4-9.9-7.2-10.4-14.4h9.9c2.8,7.5,10.8,10.4,18.2,6.6
	c1.7-0.9,2.9-2.1,3-4.2c0.1-2.2-0.7-4.1-2.7-4.9c-3.5-1.3-7.1-2.2-10.7-3.3c-3-0.9-6-1.5-8.8-2.7c-5.5-2.2-7.9-6-7.9-11.9
	c0-5.1,2.9-9.4,8.1-11.3c7.1-2.6,14.4-3,21.5-0.1c4.8,1.9,7.7,5.7,8.9,10.8C454.1,308.9,454,309.4,454,310.2z M400.3,296.9h9.2v7.6
	h-9c-0.1,0.9-0.1,1.6-0.1,2.2c0,7.7,0,15.4,0,23.1c0,1,0.1,2.1,0.2,3.1c0.2,2,1.3,3.2,3.3,3.4c1.8,0.1,3.7,0,5.7,0v7.6
	c-4.2,1.1-8.4,1-12.5,0.1c-4.8-1.1-6.7-4.5-6.8-10.8c-0.1-8.7,0-17.3,0-26v-2.5h-7.6V297h7.5v-14.1h10.3
	C400.3,287.5,400.3,292.1,400.3,296.9z M485.9,344.3c-3.9,0-7.7,0.1-11.4,0c-3.6-0.2-6.4-2.6-7.2-6.2c-0.4-2.1-0.7-4.2-0.7-6.3
	c-0.1-8.1,0-16.3,0-24.4v-2.6h-7.6v-7.6h7.5v-14.2h10.3v14h9.1v7.7h-8.7c-0.1,0.7-0.2,1.2-0.2,1.6c0,8.3,0,16.6,0,24.9
	c0,4.4,1.2,5.4,5.4,5.4c1.1,0,2.3,0,3.6,0L485.9,344.3L485.9,344.3z M503,297.1v8c3.9-6.8,9.4-10.4,17.5-9.2v9.9
	c-3.8-0.6-7.5-0.7-10.8,1.7c-4.3,3.1-5.8,7.8-5.9,12.8c-0.2,7.8,0,15.7,0,23.7h-10.1v-47C496.7,297.1,499.7,297.1,503,297.1z"/>
</svg>
