<svg xmlns="http://www.w3.org/2000/svg" viewBox="0 0 600 600">
  <path fill="#387eb8" d="M300 190H120s-50 0-50 110 50 110 50 110h50v-50c0-40 30-70 70-70h119.934c30.066 0 50.066-20 50.48-50.48C410.828 209.04 410 120 410 120s0-50-110-50-110 50-110 50v50h110z"/>
  <path fill="#ffc331" d="M300 410h180s50 0 50-110-50-110-50-110h-50v50c0 40-30 70-70 70H240c-30 0-50 20-50 50v120s0 50 110 50 110-50 110-50v-50H300Z"/>
  <circle cx="240" cy="120" r="20" fill="#fff"/>
  <circle cx="360" cy="480" r="20" fill="#fff"/>
</svg>
