<?xml version="1.0" ?><!DOCTYPE svg  PUBLIC '-//W3C//DTD SVG 1.1//EN'  'http://www.w3.org/Graphics/SVG/1.1/DTD/svg11.dtd'><svg height="512px" style="enable-background:new 0 0 512 512;" version="1.1" viewBox="0 0 512 512" width="512px" xml:space="preserve" xmlns="http://www.w3.org/2000/svg" xmlns:xlink="http://www.w3.org/1999/xlink"><g id="_x33_80-wix"><g><g><path d="M225.511,192.197l-24.61,95.35l-20.469-78.034c-5.528-22.992-14.956-34.88-34.81-34.88     c-19.672,0-29.224,11.629-34.809,34.88l-20.47,78.034l-24.61-95.35c-3.989-19.204-22.583-27.505-39.732-25.349L73.13,345.047     c0,0,15.546,1.121,23.33-2.847c10.221-5.21,15.079-9.229,21.268-33.472c5.513-21.613,20.922-85.107,22.368-89.627     c3.421-10.738,7.97-9.927,11.067,0c1.416,4.527,16.854,68.014,22.368,89.627c6.181,24.243,11.047,28.262,21.268,33.472     c7.777,3.968,23.33,2.847,23.33,2.847l47.129-178.198C247.706,164.642,229.449,173.267,225.511,192.197L225.511,192.197z      M308.728,195.943c0,0-2.946,4.556-9.674,8.316c-4.32,2.414-8.468,4.052-12.917,6.188c-10.882,5.219-9.472,10.026-9.472,25.3     v109.3c0,0,11.895,1.503,19.671-2.466c10.012-5.104,12.313-10.025,12.406-32.186V202.391l-0.015,0.007V195.943L308.728,195.943z      M426.198,256.375l59.801-88.938c0,0-25.235-4.298-37.733,7.08c-9.559,8.696-17.546,21.238-38.941,52.088     c-0.338,0.523-4.492,7.575-9.395,0c-21.053-30.354-29.326-43.334-38.941-52.088c-12.5-11.378-37.735-7.08-37.735-7.08     l59.8,88.938l-59.634,88.663c0,0,26.283,3.322,38.775-8.056c8.259-7.519,12.636-14.641,37.741-50.829     c4.896-7.561,9.035-0.554,9.395,0c21.132,30.459,28.197,41.73,38.194,50.829c12.499,11.378,38.324,8.056,38.324,8.056     L426.198,256.375L426.198,256.375z"/></g><path d="M308.742,166.654c0,9.365,1.494,23.496-20.614,31.502c-6.843,2.48-11.463,6.944-11.463,6.944    c0-22.282,3.391-30.347,12.505-35.119C296.179,166.31,308.742,166.654,308.742,166.654z" style="fill:#FBBD71;"/></g></g><g id="Layer_1"/></svg>