<?xml version="1.0" encoding="UTF-8"?>
<!DOCTYPE svg PUBLIC "-//W3C//DTD SVG 1.1//EN" "http://www.w3.org/Graphics/SVG/1.1/DTD/svg11.dtd">
<svg xmlns="http://www.w3.org/2000/svg" version="1.1" width="1280px" height="1280px" style="shape-rendering:geometricPrecision; text-rendering:geometricPrecision; image-rendering:optimizeQuality; fill-rule:evenodd; clip-rule:evenodd" xmlns:xlink="http://www.w3.org/1999/xlink">
    <g>
        <path style="opacity:0.997" fill="#7da7d9" d="M 603.5,-0.5 C 627.5,-0.5 651.5,-0.5 675.5,-0.5C 857.534,12.9345 1008.37,87.9345 1128,224.5C 1219.42,334.068 1269.92,460.402 1279.5,603.5C 1279.5,627.5 1279.5,651.5 1279.5,675.5C 1271.22,802.357 1229.89,917.024 1155.5,1019.5C 1155.17,1019.5 1154.83,1019.5 1154.5,1019.5C 1100.85,965.521 1047.19,911.521 993.5,857.5C 1048.1,766.826 1066.6,669.16 1049,564.5C 1022.4,436.684 952.898,340.184 840.5,275C 722.379,213.324 601.379,206.991 477.5,256C 356.066,310.678 276.233,401.845 238,529.5C 204.428,666.323 230.428,790.323 316,901.5C 399.816,1000.65 506.982,1051.98 637.5,1055.5C 716.733,1055.36 790.066,1034.7 857.5,993.5C 911.521,1047.19 965.521,1100.85 1019.5,1154.5C 1019.5,1154.83 1019.5,1155.17 1019.5,1155.5C 917.024,1229.89 802.357,1271.22 675.5,1279.5C 651.5,1279.5 627.5,1279.5 603.5,1279.5C 421.466,1266.07 270.633,1191.07 151,1054.5C 59.5827,944.932 9.08268,818.598 -0.5,675.5C -0.5,651.5 -0.5,627.5 -0.5,603.5C 12.9345,421.466 87.9345,270.633 224.5,151C 334.068,59.5827 460.402,9.08268 603.5,-0.5 Z"/>
    </g>
    <g>
        <path style="opacity:1" fill="#fefefe" d="M 1154.5,1019.5 C 1150.45,1023.91 1146.61,1028.58 1143,1033.5C 1142.31,1034.44 1142.47,1035.1 1143.5,1035.5C 1111.83,1075.83 1075.83,1111.83 1035.5,1143.5C 1035.1,1142.47 1034.44,1142.31 1033.5,1143C 1028.58,1146.61 1023.91,1150.45 1019.5,1154.5C 965.521,1100.85 911.521,1047.19 857.5,993.5C 790.066,1034.7 716.733,1055.36 637.5,1055.5C 506.982,1051.98 399.816,1000.65 316,901.5C 230.428,790.323 204.428,666.323 238,529.5C 276.233,401.845 356.066,310.678 477.5,256C 601.379,206.991 722.379,213.324 840.5,275C 952.898,340.184 1022.4,436.684 1049,564.5C 1066.6,669.16 1048.1,766.826 993.5,857.5C 1047.19,911.521 1100.85,965.521 1154.5,1019.5 Z"/>
    </g>
    <g>
        <path style="opacity:1" fill="#6dcff6" d="M 619.5,415.5 C 697.611,411.491 762.111,438.824 813,497.5C 866.378,567.546 877.378,643.879 846,726.5C 809.939,804.804 749.106,849.97 663.5,862C 583.793,868.716 517.96,841.883 466,781.5C 418.739,720.534 404.739,652.534 424,577.5C 449.167,500.333 500.333,449.167 577.5,424C 591.449,420.18 605.449,417.347 619.5,415.5 Z"/>
    </g>
    <g>
        <path style="opacity:0.451" fill="#e6eef7" d="M 1154.5,1019.5 C 1154.83,1019.5 1155.17,1019.5 1155.5,1019.5C 1151.85,1025.14 1147.85,1030.47 1143.5,1035.5C 1142.47,1035.1 1142.31,1034.44 1143,1033.5C 1146.61,1028.58 1150.45,1023.91 1154.5,1019.5 Z"/>
    </g>
    <g>
        <path style="opacity:0.451" fill="#e4edf7" d="M 1035.5,1143.5 C 1030.47,1147.85 1025.14,1151.85 1019.5,1155.5C 1019.5,1155.17 1019.5,1154.83 1019.5,1154.5C 1023.91,1150.45 1028.58,1146.61 1033.5,1143C 1034.44,1142.31 1035.1,1142.47 1035.5,1143.5 Z"/>
    </g>
</svg>
