<svg xmlns="http://www.w3.org/2000/svg" xml:space="preserve" viewBox="60 329.689 149.444 166.512">
  <path fill="#430098" d="M194.458 329.689H74.987A14.924 14.924 0 0 0 60 344.675v136.539c0 8.326 6.66 14.986 14.986 14.986h119.472c8.326 0 14.986-6.66 14.986-14.986V344.675a14.923 14.923 0 0 0-14.986-14.986zm6.661 151.525c0 3.748-2.914 6.662-6.661 6.662H74.987c-3.747 0-6.661-2.914-6.661-6.662V344.675c0-3.747 2.914-6.661 6.661-6.661h119.472c3.747 0 6.661 2.914 6.661 6.661v136.539zm-103.654-9.99 18.732-16.65-18.732-16.652v33.302zm67.438-67.437c-3.33-3.331-9.574-7.493-19.981-7.493-11.239 0-22.896 2.914-31.221 5.828v-47.456H97.049v72.017l11.655-5.413s19.149-8.742 35.801-8.742c8.325 0 10.406 4.579 10.406 8.742v49.954h16.651V421.27c.418-1.248.418-10.406-6.659-17.483zm-22.063-22.063h16.65c7.493-8.742 11.24-17.484 12.489-27.058h-16.651c-1.665 9.574-5.828 18.316-12.488 27.058z"/>
</svg>
